# xmcd
#
# Track frame offsets: 
#        150
#        11903
#        24219
#        32527
#        44396
#        58639
#        67779
#        76675
#        87016
#        99146
#        110277
#        121328
#        133766
#        144729
#        156176
#        168223
#        179058
#        189198
#        200361
#        212382
#        224001
#        233639
#        243395
#        255059
#        267222
#        278826
#        290007
#        301854
#        312974
#        324935
#        336382
#        348443
#
# Disc length: 4796 seconds
#
# Revision: 0
# Processed by: cddbd v1.5.2PL0 Copyright (c) Steve Scherf et al.
# Submitted via: ExactAudioCopy v0.99pb5
#
DISCID=b412ba20
DTITLE=George Jones - The Complete United Artists Solo Singles
DYEAR=2013
DGENRE=Country
TTITLE0=She Thinks I Still Care
TTITLE1=Sometime's You Just Can't Win
TTITLE2=Beacon In The Night
TTITLE3=He Made Me Free
TTITLE4=Open Pit Mine
TTITLE5=Geronimo
TTITLE6=He's So Good To Me
TTITLE7=Magic Valley
TTITLE8=A Girl I Used To Know
TTITLE9=Big Fool Of The Year
TTITLE10=Not What I Had In Mind
TTITLE11=I Saw Me
TTITLE12=Lonely Christmas Call
TTITLE13=My Mom And Santa Claus (Twistin' Santa Claus)
TTITLE14=You Comb Her Hair
TTITLE15=Ain't It Funny What A Fool Will Do
TTITLE16=Your Heart Turned Left (And I Was On The Right)
TTITLE17=My Tears Are Overdue
TTITLE18=Something I Dreamed
TTITLE19=Where Does A Little Tear Come From
TTITLE20=The Race Is On
TTITLE21=She's Lonesome Again
TTITLE22=Least Of All
TTITLE23=Brown To Blue
TTITLE24=Wrong Number
TTITLE25=The Old, Old House
TTITLE26=What's Money
TTITLE27=I Get Lonely In A Hurry
TTITLE28=World's Worst Lover
TTITLE29=I Can't Change Overnight
TTITLE30=Best Guitar Picker
TTITLE31=A Good Old Fashioned Cry
EXTD=
EXTT0=
EXTT1=
EXTT2=
EXTT3=
EXTT4=
EXTT5=
EXTT6=
EXTT7=
EXTT8=
EXTT9=
EXTT10=
EXTT11=
EXTT12=
EXTT13=
EXTT14=
EXTT15=
EXTT16=
EXTT17=
EXTT18=
EXTT19=
EXTT20=
EXTT21=
EXTT22=
EXTT23=
EXTT24=
EXTT25=
EXTT26=
EXTT27=
EXTT28=
EXTT29=
EXTT30=
EXTT31=
PLAYORDER=
